<?xml version="1.0" encoding="UTF-8"?>
<svg width="100%" height="100%" viewBox="0 0 600 600" xmlns="http://www.w3.org/2000/svg" xmlns:xlink="http://www.w3.org/1999/xlink" onload="init();">
<style type="text/css">
#snet, .snet {fill: none; stroke-linecap: round; stroke-linejoin: bevel}

.mo {stroke: #e15983; stroke-width: 16}
.fill .mo {stroke: #e892a2; stroke-width: 14}
.z0 .z0 .outline .mo {stroke-width: 32}
.z0 .z0 .fill .mo {stroke-width: 24}

.pr {stroke: #b78b34; stroke-width: 15}
.fill .pr {stroke: #fcd6a4; stroke-width: 13}
.z0 .z0 .outline .pr {stroke-width: 30}
.z0 .z0 .fill .pr {stroke-width: 22}

.se {stroke: #96a03b; stroke-width: 14}
.fill .se {stroke: #f7fabf; stroke-width: 12.5}
.z0 .z0 .outline .se {stroke-width: 28}
.z0 .z0 .fill .se {stroke-width: 20}
.z0 .z0 .z0 .z0 .z0 .outline .se {display: none}
.z0 .z0 .z0 .z0 .z0 .fill .se {display: none}

.te {stroke: #cccbcb; stroke-width: 13}
.fill .te {stroke: #fff; stroke-width: 11}
.z0 .z0 .z0 .outline .te {display: none}
.z0 .z0 .z0 .fill .te {display: none}

.st {stroke: #cccbcb; stroke-width: 10}
.fill .st {stroke: #fff; stroke-width: 8}
.z0 .z0 .z0 .outline .st {display: none}
.z0 .z0 .z0 .fill .st {display: none}

.rw {stroke: #555; stroke-width: 10}
.fill .rw {stroke: #eee; stroke-width: 4; stroke-dasharray: 30 30}
.z0 .z0 .outline .rw {stroke-width: 20}
.z0 .z0 .fill .rw {stroke-width: 8}

.sn {font-family: sans; font-size: 24px}
.z0 .z0 .sn {display: none}

/*.z0, .z1 {transition: all 0.2s linear}*/
.z0 {transform: scale(0.5)}
.z1 {transform: scale(1)}

#zoom-in, #zoom-out {cursor: pointer}
</style>
<script><![CDATA[

var f = 3; // zoom factor
var ox = 0; // persistent offsets
var oy = 0;
var dx = 0; // current drag offsets
var dy = 0;
var sx = 0; // drag start positions
var sy = 0;

var p = 0;
var shifter = 0;
var streets = 0;
function init()
{
	p = document.getElementById('zp');
	shifter = document.getElementById('shifter').transform.baseVal.getItem(0);
	streets = document.getElementById("streets");
	streets.addEventListener('mousedown', grab);
	streets.addEventListener('mouseup', drop);
};
function zoom_in()
{
	if(p.getAttribute('class') == 'z0')
	{
		p.setAttribute('class', 'z1');
		p = p.firstChild;
		f = f * 0.5;
	}
};
function zoom_out()
{
	if(p.parentElement.getAttribute('class') == 'z1')
	{
		p = p.parentElement;
		p.setAttribute('class', 'z0');
		f = f * 2.0;
	};
};

function grab(ev)
{
	streets.addEventListener('mousemove', drag);
	sx = ev.clientX;
	sy = ev.clientY;
};
function drag(ev)
{
	dx = ((ev.clientX - sx) * f + ox);
	dy = ((ev.clientY - sy) * f + oy);
	shifter.setTranslate(dx, dy);
};
function drop(ev)
{
	drag(ev);
	streets.removeEventListener('mousemove', drag);
	ox = dx;
	oy = dy;
};
]]></script>
<defs>
</defs>

<g id="streets" transform="translate(300 300)">
<path d="M -2000 -2000 h 4000 v 4000 H -2000 z" fill="#f2efe9"/>
<g class="z1"><g class="z1"><g class="z1"><g class="z1"><g class="z0"><g id="zp" class="z0"><g id="shifter" transform="translate(0 0)">
<circle cx="0" cy="0" r="1260" fill="none" stroke="#cccbcb" stroke-width="2" stroke-dasharray="40 30"/>
<!--<circle cx="0" cy="0" r="2100" fill="none" stroke="#96a03b" stroke-width="4" stroke-dasharray="80 60" />-->
<circle cx="0" cy="0" r="2100" fill="none" stroke="#e15983" stroke-width="8" stroke-dasharray="160 120"/>


<g class="outline"><use xlink:href="#snet"/></g><g class="fill">
<g id="snet">
<path class="se" d="M 437 -184 M 562 -328 542 -340 M 352 -90 365 -85 "/>
<path class="pr" d="M 0 542 -12 562 M -407 583 l -4 1 -7 1 -6 5 -4 8 L -422 604 M -221 604 -213 604 M -1840 328 -1840 365 M -835 806 -835 750 M -1980 379 l 10 -3 -12 1 -6 -1 -6 -3 L -2050 352 M -835 1780 l -4 -29 -11 -2 L -866 1720 M -806 750 l -27 -17 L -898 698 M 87 604 l 8 0 8 2 L 120 626 l -9 -26 0 -6 L 111 583 M -1040 542 -1040 604 M 2 470 l 8 27 L 10 505 M -26 562 l 19 9 L 10 583 M 1380 274 l 21 -7 -3 -8 L 1380 255 M 1380 221 l 8 -4 -6 3 L 1380 221 M 1330 221 l 15 17 L 1330 246 M 1330 274 l 32 1 L 1380 274 M 143 -1720 129 -1780 M 1330 246 l 16 6 -3 12 L 1330 274 M 1380 221 l -13 0 L 1330 221 M 1380 255 1380 229 M 1380 274 M -49 1150 l 7 8 L -19 1150 M 36 487 l -15 2 L 2 470 M 1380 255 1380 246 M 1380 237 1380 246 M 124 -1720 138 -1720 M -407 583 l -11 -7 -2 -4 -1 -5 L -422 562 M -12 562 -29 562 M 129 -1720 l 4 -1 7 -5 L 154 -1720 M -2050 352 -2050 340 "/>
<path class="mo" d="M 274 -2050 246 -2050 213 -2050 M 1240 115 1290 120 M 1290 149 l 3 -21 L 1290 104 M 1240 -18 1200 10 M 453 523 154 523 l -12 2 -14 -3 -7 -3 L 111 505 M 294 -2050 l -6 -20 -7 8 -6 5 -8 3 -11 2 L 246 -2050 M 213 -2050 237 -2050 M 213 -2050 l -41 -31 -21 -2 -16 3 -32 18 -59 69 -35 16 L -74 -1980 M 237 -2050 l 11 14 8 10 4 8 L 264 -1980 M 51 -1780 l -29 -29 -27 -31 -6 -19 0 -17 3 -19 11 -18 17 -14 21 -10 21 -5 60 -1 L 138 -1980 M 91 -1780 l 1 26 7 7 4 8 2 7 0 7 -2 8 L 104 -1720 M -16 -1840 11 -1780 M 149 -1780 l -10 0 -4 4 -9 6 -6 3 -12 0 L 104 -1780 M -172 -1980 l 14 35 45 7 23 10 16 11 20 17 L -16 -1840 M 124 562 l 5 -8 8 -5 8 -3 L 160 542 M 1490 -198 l -30 14 L 1380 -115 M 1290 104 1330 -22 M 1240 -18 l -42 8 -11 -2 L 1150 -16 M 91 -1780 124 -1720 M 237 -2050 274 -2050 M 129 -1780 104 -1780 51 -1780 M 1290 120 l -8 -3 7 -3 L 1290 104 M 213 -1980 l -11 19 -49 -9 -16 -6 -14 -9 -11 -11 -7 -15 0 -26 4 -11 17 -17 19 -7 21 0 24 5 L 213 -2050 M 1380 -115 1240 -18 M 1330 -22 1430 -133 M 11 -1780 91 -1780 M 1200 10 1200 15 "/>
<path class="st" d="M -523 453 -604 523 M -583 673 M -487 422 -523 453 M -583 379 l -27 -24 L -626 352 M -626 422 l 18 -5 24 -32 L -583 379 M -437 305 l -60 58 L -542 328 M -294 835 -213 777 -172 750 M -583 673 -562 750 M -422 626 l 10 5 L -392 673 -340 723 M -392 673 -542 777 M -1040 -13 -1040 -8 -965 37 -931 59 M -965 104 l -17 -6 -2 -4 -3 -4 L -1000 87 l 4 -2 -6 0 -6 1 -5 3 -3 5 -2 5 L -1040 104 l 23 5 3 5 5 3 5 2 6 1 5 -2 L -1000 115 l 15 -3 2 -4 L -965 104 M -1000 87 -965 37 M -806 -198 -806 -172 -806 -184 M -1110 178 l 51 27 26 10 27 4 L -965 221 M -1150 237 l -6 -3 L -1110 178 l 51 -55 11 -10 21 -8 L -1040 104 M -965 221 l -14 -9 -5 -78 L -1000 115 M -1000 -379 l -20 44 L -1070 -294 M -1200 -365 l 41 2 28 9 25 14 21 16 L -1070 -294 -1000 -198 l 28 23 L -931 -160 M 604 -806 626 -806 673 -866 M 82 -673 246 -562 340 -505 422 -437 M -29 -523 l -67 -66 -19 -29 -12 -30 -6 -65 6 -36 14 -35 22 -35 L 19 -931 82 -1000 M 19 -931 -133 -1070 M -67 -1150 82 -1000 229 -898 M -523 82 -542 64 M 365 -85 l 178 100 L 562 28 M -505 806 l -5 13 L -604 835 M -698 898 -604 898 M -542 1110 -604 898 M -698 898 -806 931 M -284 453 l 70 107 9 8 9 5 9 2 9 1 12 -2 10 -5 L -71 505 M 523 866 l -8 -4 L 437 777 l -75 -99 -18 -8 -18 -1 -6 1 L 205 723 M 178 898 274 866 M 365 -237 487 -392 M 542 -340 487 -392 470 -407 M 453 898 562 1040 M -723 -74 -626 -165 l 60 -72 L -562 -255 l 17 -30 4 -21 -1 -18 -10 -34 -14 -24 -18 -21 -13 -8 L -626 -422 M -777 -160 l 47 -28 L -698 -221 M -626 -165 l -29 -27 L -698 -221 M -583 -284 -562 -255 M -777 -407 l 45 16 L -649 -328 -583 -284 M -1240 96 l 24 -10 12 -2 17 2 12 6 7 10 15 41 L -1150 149 M 379 1150 l 64 -21 7 2 L 470 1150 M -965 777 l -3 -17 L -965 750 M -1040 604 M -523 -931 l 29 -96 21 -42 L -352 -1200 M -437 -898 -453 -898 M -523 -931 l -9 -2 -5 3 -2 6 2 6 L -523 -931 M 24 -1240 1 -1240 M -172 750 l -2 -4 L -255 649 M -213 777 -255 750 M -340 723 l -120 88 L -453 806 M -340 723 -284 673 M -604 835 -698 866 M -542 1110 l 18 -6 73 -97 2 -5 L -453 1000 -453 931 -453 806 M -453 931 -542 931 M -523 1150 -542 1110 M -379 835 l 5 44 L -379 898 M -294 1000 -379 1000 M -294 1110 -294 1000 -284 931 M 133 649 l -129 76 L 1 723 M -1200 213 l -29 -30 L -1240 96 l -11 -26 L -1240 61 M -1040 -392 -1000 -470 -965 -542 -931 -626 -898 -649 M 255 1200 221 1040 M 866 -723 l -198 -160 L 673 -866 M 422 -835 M 562 -542 437 -626 M 470 -407 l 39 -50 24 -53 L 562 -542 649 -673 698 -723 M 649 -673 422 -835 M 487 -898 422 -835 M 34 1200 32 1150 M 379 1200 352 1200 M 626 1000 562 1040 487 1110 M 626 1000 673 1070 M 143 264 4 379 "/>
<path class="st" id="s0" d="M -61 -2 l 160 120 5 3 L 107 129 111 138 "/>
<path class="st" d="M 143 264 111 138 M -71 505 -13 453 M 523 866 542 866 562 866 M -604 523 l -96 70 -10 13 -13 26 L -723 698 M 365 -1000 l 2 -17 L 379 -1040 M 165 -1240 124 -1200 120 -1200 M 505 -898 583 -1000 l 18 -27 L 604 -1040 626 -1040 M 604 -1040 l -7 29 L 583 -1000 M 505 1110 487 1110 l -96 -97 L 365 1040 M -1070 -129 -1040 -165 -1000 -198 M -1070 -229 l -8 39 6 6 10 4 L -1040 -165 M -965 750 l 63 -3 1 8 -39 18 -12 7 L -965 750 M -965 28 -965 37 M -965 28 -806 -172 M -453 583 l -6 -20 L -523 453 -583 379 M 542 866 l -6 19 L 626 1000 M 120 1200 l 32 -55 -15 -8 -27 6 -9 -43 -107 50 84 16 L 120 1200 M -340 723 -294 835 -284 866 M 562 1110 604 1070 M -750 723 M -67 -1150 -133 -1070 l -77 120 -11 39 -1 13 -17 9 -12 -4 -15 -27 L -365 -1000 M -523 -626 l 20 -22 L -470 -673 M 274 866 l 37 -34 7 1 L 437 777 l 87 -86 L 583 673 M -13 453 -9 453 M 1150 -453 1150 -487 M 246 -562 328 -698 M 316 -487 274 -437 205 -352 M 143 626 l 15 -12 3 -25 13 -2 -8 13 -1 5 2 18 -5 -1 -4 -4 L 143 626 M -698 866 -698 898 M 1110 -523 1110 -505 l 7 -6 6 9 L 1150 -487 M -965 750 M -750 723 -698 866 M -39 1200 -38 1150 M -583 379 -542 328 -487 255 "/>
<path class="st" id="s1" d="M -583 673 l -28 -63 L -604 523 -626 422 -626 352 l 4 -120 3 -19 7 -17 L -604 184 "/>
<path class="st" d="M -379 965 -379 1000 -379 1150 M -379 898 -379 965 M 328 -698 l 68 51 L 407 -649 M -604 184 -583 165 M -604 898 -604 835 M -698 898 -673 965 M -604 835 -649 698 M 104 777 -165 898 l -41 2 L -221 898 M -965 750 -1000 750 M -604 -8 -583 37 M -542 64 -583 37 l -46 55 L -626 90 M 316 -487 340 -505 M 470 -407 453 -407 M -453 -898 -523 -931 M 1150 -487 1110 -523 M -453 1000 -437 1000 -379 1000 l -6 22 -48 -1 -12 -9 2 -5 L -437 1000 -379 1000 M 352 1200 255 1200 M 221 1040 178 898 M -9 453 24 422 M -698 -221 l -29 -17 L -649 -328 M 352 -392 274 -437 M 352 -392 274 -305 M 1 -1240 -67 -1150 M 205 723 104 777 M -723 698 l -19 10 0 4 L -750 723 M -284 931 -284 866 M -294 1150 -294 1110 M -221 898 -284 866 M -453 583 M 626 898 777 931 M 562 866 626 898 M 562 866 l -7 3 L 562 835 M 229 -898 246 -866 M -294 1200 -294 1150 M 379 -1040 l 5 3 25 -36 L 422 -1070 M -542 777 l 13 9 7 7 L -505 806 M -562 750 l 22 22 L -542 777 M -505 806 -470 806 -453 806 -379 835 -340 866 -284 866 M -523 -931 l -2 16 5 -4 L -523 -931 "/>
<path class="st" id="s2" d="M 205 -352 274 -305 365 -237 437 -184 "/>
<path class="te" id="s3" d="M -583 165 l 7 5 L -487 255 -437 305 -294 453 "/>
<path class="te" d="M -866 -284 -866 -274 M -866 -284 -898 -305 M -1110 124 l -29 -14 L -1150 76 "/>
<path class="te" id="s4" d="M -583 165 -523 82 -229 -284 -29 -523 82 -673 246 -866 "/>
<path class="te" d="M -229 -284 l -56 -49 -21 -22 -89 -165 -45 -41 L -523 -626 -562 -626 M 1070 505 1110 523 M -1110 143 -1110 124 M 2 470 -13 453 M -124 328 -129 316 M -294 453 -284 453 M 352 -1000 365 -1000 M 294 -931 l -13 12 -29 36 L 246 -866 M -866 -274 -835 -229 M 1110 523 1110 542 M -13 453 -120 328 M -604 160 l -1 14 L -604 184 M -698 64 l 1 26 L -698 107 l 14 8 L -626 149 M -120 328 -124 328 M 365 1040 l -7 -30 L 340 965 M 305 -931 316 -965 M -898 -305 -1000 -379 -1040 -392 -1110 -437 M -835 -229 -806 -198 -806 -184 -777 -160 -723 -74 l 14 14 4 18 L -698 64 M 316 -965 l 31 -37 L 352 -1000 M 365 1040 M 379 1150 365 1040 M 379 1200 379 1150 M -604 160 -583 165 M -626 149 -604 160 M 246 -866 l 11 -14 29 -36 L 294 -931 305 -931 M -1150 76 l -7 -8 -8 -46 9 -67 0 -22 -34 -97 L -1200 -294 M -562 -626 -604 -649 -604 -673 "/>
<path class="se" d="M -1290 806 -1290 835 -1240 866 M 340 965 274 866 M 34 1110 l -10 15 L -8 1150 M -1430 1330 l -15 18 -17 22 -13 13 L -1490 1380 M -1720 649 M 1000 -866 1040 -898 1150 -931 1200 -931 M -806 -1430 l 2 11 10 4 L -777 -1430 M -1290 1380 -1330 1380 M 866 -723 965 -866 M 866 -723 806 -649 M -898 750 l -36 23 L -965 777 M 523 866 542 866 M 1200 437 1330 274 M -806 -1430 l -9 -5 -1 -7 2 -7 L -806 -1490 M -1540 723 -1490 750 M -1240 866 M 1330 -1040 l 38 -12 L 1380 -1070 M 1290 -1290 M 1330 -1040 l 0 -15 -29 -23 -11 -14 L 1240 -1150 M -1200 965 -1150 931 M 34 1110 221 1040 M -4 1150 34 1110 M -835 1840 -835 1780 M -111 -1380 -160 -1380 M 1380 246 1330 274 M -437 583 -437 562 M 1330 274 1380 255 M 806 -649 M -19 1150 -4 1150 M -1780 698 l 10 -9 38 -23 L -1720 649 M -1910 777 l 28 -15 51 -34 L -1840 723 M -1070 835 -1000 806 M -1150 931 M -1430 1330 -1380 1330 M -750 -1430 -604 -1430 M -1430 1330 -1430 1290 M -294 453 -305 470 "/>
<path class="se" id="s5" d="M -284 453 -124 328 111 138 l 221 -191 L 365 -85 437 -184 562 -328 806 -649 "/>
<path class="se" d="l 35 -39 L 866 -723 M -246 -1380 l 99 -11 13 5 L -120 -1380 M 542 866 562 835 673 750 M -340 -1380 -264 -1380 M -1910 777 -1910 806 M 1330 -1000 l 6 -30 1 -6 0 -6 L 1330 -1040 M -806 -1720 -835 -1720 -1000 -1840 M -100 -1380 -111 -1380 M 965 -866 M 1380 -1330 1490 -1490 M -965 777 -1000 806 M -1540 723 M -1720 649 l -16 11 L -1720 673 -1780 673 -1780 698 M -1240 866 M -120 -1380 -107 -1380 M -1720 649 -1540 723 M -1110 1490 M -1150 1490 -1110 1490 M -264 -1380 -246 -1380 M -392 -1380 -365 -1380 -340 -1380 M 1000 562 1070 505 M 931 583 965 583 M -835 1840 M -835 1910 -835 1840 M -1330 1380 l 11 3 4 -6 L -1330 1380 M -8 1150 -58 1150 M 274 1000 340 965 M 1290 -1290 1330 -1330 M 205 723 184 698 133 649 M 806 -649 542 -340 437 -184 352 -90 107 129 -129 316 -294 453 M 340 965 453 898 M -1540 1380 M -1380 1330 M -1430 750 l 77 8 15 5 12 5 L -1290 806 M 1240 -1150 l 0 -45 -1 -7 0 -6 2 -6 2 -5 L 1290 -1290 M 1200 -931 1240 -965 M -931 1600 -898 1650 M -160 -1380 -178 -1380 M -1240 1430 -1200 1430 -1150 1490 M -1290 1380 -1240 1430 M -1070 866 -1070 835 M -1110 866 -1070 866 M -178 -1380 -246 -1380 M 133 649 120 626 M 673 750 723 723 M -1000 806 -965 806 -965 777 -898 777 M -328 470 l -11 11 -68 54 L -407 542 M -437 562 -453 583 M -305 470 -284 453 M -328 470 -305 470 M -407 542 l 13 -2 64 -51 L -328 470 M -437 562 -422 562 -407 542 M 274 866 205 723 M 221 1040 274 1000 M -453 583 -437 583 M -1540 1380 l 23 29 L -1490 1380 M -1110 1490 -1000 1540 -965 1600 -931 1600 M -898 1650 -806 1650 M 965 583 1000 562 M 931 604 931 583 M 1110 487 1200 437 M 1070 505 1110 487 M 453 898 523 866 M 723 723 931 604 M 965 -866 1000 -866 M -777 -1430 -750 -1430 M -777 -1490 l -2 -40 5 -27 1 -27 -7 -41 -5 -19 L -806 -1720 M -806 -1490 -777 -1490 M -604 -1430 -562 -1430 -392 -1380 M -1490 750 -1430 750 M -1540 1380 -1540 1430 M -1430 1330 M -1540 1430 l 11 -6 L -1540 1380 M -1490 1380 l 8 16 11 -7 10 -9 22 -28 L -1430 1330 M -1490 1380 -1540 1380 M -1240 866 M -1200 898 l 8 42 L -1200 965 M -1150 931 -1110 866 M -1240 866 -1200 898 M -1200 931 l -4 -23 L -1200 898 M -1200 965 l 13 -29 L -1200 931 M -1330 1380 -1290 1380 M -1380 1330 -1430 1290 M -1380 1330 l 33 56 11 4 L -1330 1380 l 12 -22 L -1380 1330 M 1380 -1070 l 51 -17 11 -2 9 -1 62 15 64 2 L 1840 -1000 M 1200 -931 M 1240 -965 1290 -965 1290 -1000 l 26 -6 L 1330 -1000 M 1330 -1330 1380 -1330 M -1840 723 -1780 698 M -1840 723 l -46 32 L -1910 777 "/>
<path class="pr" d="M -221 604 -392 583 M -866 750 M -1290 352 l 9 -5 L -1330 340 "/>
<path class="pr" id="s6" d="M 806 -649 l 35 51 L 931 -453 "/>
<path class="pr" d="M -437 583 -453 583 M 274 -2050 M -898 1780 l 6 -20 50 8 L -835 1780 M -835 1840 l -143 -42 -9 -5 L -1000 1780 M -213 604 l 24 -1 L -26 562 M 698 1600 l 2 -16 L 698 1600 M 806 -649 M 274 -2050 264 -1980 M 1840 604 l -56 -33 -27 -24 -237 -143 L 1430 316 M 1840 673 1840 604 M 1840 673 l 52 48 36 25 L 1980 750 M 1780 604 1840 673 M -1980 407 -1980 392 M -750 1150 -750 1200 M -835 1780 l 2 30 L -835 1840 M -835 1780 M 931 -453 931 -422 1000 -328 M 965 -422 931 -470 866 -562 M 1980 750 l -49 -11 -34 -22 -13 -12 L 1840 673 M 407 1380 l 20 34 L 487 1430 M -29 562 -221 604 M 698 1600 777 1650 M 407 1380 365 1380 M -129 1150 -165 1150 M -806 1720 l -29 6 L -835 1720 M -866 1720 l 4 28 -10 3 -26 -1 L -898 1780 M -835 1780 l 18 -29 10 -54 L -806 1650 l -13 39 L -806 1720 -835 1780 M -835 1840 M 1380 255 l -5 10 L 1380 274 M 294 -2050 274 -2050 294 -2050 M -1980 407 M 777 1650 806 1650 M -1290 352 l 38 -3 L -1240 340 M -1290 352 -1290 379 -1150 523 -1070 562 -1040 604 l 133 120 L -898 750 M -898 777 -866 777 M -866 750 -835 750 M -898 750 -898 777 M 1380 237 1330 221 1290 149 M 1380 274 l 172 165 198 115 29 22 L 1780 604 M -19 1150 l -19 3 L -58 1150 M -750 1200 -777 1290 M -1980 392 -1980 407 M 487 1430 l -57 -26 L 407 1380 M -866 750 -898 750 M 111 505 l -13 -8 -17 -9 -15 -2 -17 1 L 36 487 "/>
<path class="pr" id="s7" d="M 10 505 l -8 22 L 0 542 l 5 25 L 10 583 l 8 10 20 11 11 4 12 1 12 -1 L 87 604 l 15 -8 L 111 583 l 8 -7 L 124 562 l -4 -28 L 111 505 "/>
<path class="pr" d="M -898 698 -898 673 M -835 806 -866 750 M -673 -542 -750 -470 M -1110 124 -1150 149 M -866 -284 -931 -160 M -777 1330 -777 1430 M -1000 1780 M -1980 407 l 13 -16 12 -5 L -1910 379 M -898 673 -1040 542 -1110 487 M 542 1490 583 1490 M 542 1490 l -14 -21 L 487 1430 M -750 723 -806 723 M -866 750 M -120 -1380 -143 -1330 M 1000 -328 1000 -274 M 36 487 l -15 13 L 10 505 M 698 1600 673 1540 l -10 18 L 649 1540 M 673 1600 l 20 -10 L 698 1600 M -777 1040 -777 1070 M -806 931 -835 806 M -58 1150 -93 1150 M -866 750 -898 698 M 74 -1650 82 -1650 129 -1720 M 72 -1650 65 -1650 -2 -1540 -42 -1490 M 806 -649 626 -806 505 -898 422 -965 M 806 -649 M 365 -1000 124 -1200 94 -1200 "/>
<path class="pr" id="s8" d="M -107 -1380 l 28 24 L 28 -1290 120 -1200 352 -1000 487 -898 604 -806 698 -723 806 -649 "/>
<path class="pr" d="M -1910 379 l 61 -14 20 -2 L -1840 365 M 777 1650 M 866 1720 965 1780 M 34 -1290 -29 -1330 M -777 1490 -777 1540 M -49 1150 -38 1150 16 1150 M 866 -562 806 -649 M -100 -1380 -90 -1380 -59 -1430 M -1720 305 -1780 316 M -1840 328 l -63 20 L -1910 352 M 213 -1840 237 -1910 M 264 -1980 191 -1840 149 -1780 M 1240 67 1240 100 M 1240 115 1290 129 M 1240 96 1240 63 1200 10 M 1150 -16 1150 -35 M -1150 1780 -1110 1720 M -866 777 -866 750 M 1200 15 1200 38 M 1290 149 1290 120 M 143 -1720 213 -1840 M 104 -1720 80 -1650 M 294 -2050 M -1980 379 -1980 392 M -2050 340 -2050 294 M -898 777 -835 965 M 16 1150 32 1150 M -392 -965 -453 -898 M -604 -673 -649 -604 M -453 -898 -604 -673 M -107 -1380 -100 -1380 M -111 -1380 -120 -1380 M 124 -1720 104 -1720 M 129 -1780 124 -1720 M 255 1290 237 1290 M 604 1540 626 1540 649 1540 M -835 1840 M -1000 1780 -931 1780 M 55 1150 -19 1150 M 124 1200 l -49 -25 L 55 1150 M -1980 392 -2050 340 M -1110 1720 -1000 1780 M 1000 -340 965 -422 M -407 583 M -392 583 -407 583 l -28 -5 L -437 583 M -2050 328 l -2 6 L -2050 352 M -835 965 M -777 1070 l 13 -24 L -777 1000 M 1290 120 1240 96 M -453 583 -422 604 -422 626 l 48 29 32 14 21 4 23 -1 L -284 673 M -777 1540 -806 1600 -806 1650 M -1780 316 -1840 328 M -1910 352 -1980 379 M -2050 352 -1980 407 M -1840 365 l 58 -2 75 11 L -1600 365 -1540 365 -1380 365 M -1200 213 -1200 264 M -1200 392 -1290 352 M -1110 487 -1200 392 M -1380 365 -1330 379 M 1200 38 1240 67 M 1290 129 1290 172 M 1430 316 1380 274 M 1290 172 1330 221 1380 246 1380 255 M 1380 274 l 6 -15 L 1380 246 1380 237 M 1150 -35 l -143 -264 L 1000 -340 M 94 -1200 34 -1290 M 422 -965 365 -1000 M -29 -1330 l -60 -46 L -100 -1380 M -806 -379 -806 -352 M -246 -1200 -392 -965 M -806 -352 -866 -284 M -649 -604 -673 -542 M -221 -1240 -246 -1200 M -184 -1290 -221 -1240 M -1200 264 l -64 78 L -1290 352 M -143 -1330 -172 -1290 M -523 1150 -562 1150 M -379 1150 -422 1150 M -626 1150 M -165 1150 -213 1150 -294 1150 M -562 1150 -626 1150 M -294 1150 l -18 -3 L -379 1150 M -583 1150 l 59 2 L -505 1150 M -777 1290 -777 1330 M -76 -1430 l -24 29 L -111 -1380 M -777 1430 -777 1490 M 294 -2050 274 -2050 M 237 -1910 294 -2050 M 806 1650 835 1650 866 1720 M -2050 437 -1980 407 M -866 1910 -835 1840 M 965 1780 1000 1780 M 649 1540 l 7 25 L 673 1600 M -1330 379 l 29 -1 L -1290 379 M -1330 340 l -255 -4 L -1650 316 -1720 305 M -777 1070 -750 1070 -750 1150 M -93 1150 -129 1150 M -750 1150 -673 1150 M 583 1490 604 1540 M 487 1430 l 35 48 L 542 1490 M 328 1330 284 1330 M 32 1150 55 1150 M -58 1150 -49 1150 M -487 1150 l 3 3 L -470 1150 M -379 1150 l 67 7 L -294 1150 M -505 1150 -487 1150 M -626 1150 l 10 -1 L -604 1150 M -673 1150 -626 1150 M -422 1150 l -61 -8 L -487 1150 M -470 1150 -379 1150 M -604 1150 -583 1150 M -835 965 -806 1000 M -777 1000 -806 931 M -505 1150 -523 1150 M 237 1290 124 1200 M 284 1330 255 1290 M -806 1000 -777 1040 M -723 723 -698 723 M -723 723 l 0 -8 L -750 723 M -806 750 -750 723 l 30 1 L -723 723 M -453 583 l -42 23 -85 66 L -583 673 l -115 36 L -698 723 l 4 -7 L -649 698 -583 673 l 124 -82 L -453 583 M -284 673 -255 649 -213 604 M 1240 100 1240 115 M -32 -1490 8 -1540 18 -1540 43 -1600 74 -1650 M -42 -1490 -55 -1490 -76 -1430 M 365 1380 328 1330 M 1200 10 1150 -16 M -931 1780 -898 1780 M -806 750 -866 750 M -806 723 -806 750 M -931 1840 -898 1910 -866 1910 M -1150 149 -1200 213 "/>
<path class="pr" id="s9" d="M -1150 237 -1110 143 -1040 -8 -866 -274 -777 -407 -604 -649 -437 -898 -365 -1000 -107 -1380 "/>
<path class="pr" d="M -835 1720 -866 1720 M -835 1780 M -866 1910 l 0 -21 L -866 1910 M -835 750 -806 750 M -172 -1290 -184 -1290 M -59 -1430 -32 -1490 M -1040 -13 -1110 124 M -1000 -81 -1040 -13 M -931 -160 -1000 -81 M -750 -470 -806 -379 M 80 -1650 72 -1650 M 129 -1720 138 -1720 143 -1720 M 149 -1780 129 -1780 M -1240 340 -1150 237 M 1000 -274 1200 15 "/>
<path class="mo" id="s10" d="M 160 542 l 392 -12 178 -44 191 -100 L 1240 94 "/>
<path class="mo" d="M 1240 84 l -274 255 -191 115 -221 67 L 453 523 M 213 -1910 264 -1910 316 -1910 M 274 -1980 221 -1980 213 -1980 M 365 -1910 407 -1910 835 -1840 M 407 -1910 365 -1910 274 -1980 M 1240 94 1240 66 1430 -133 M 1240 53 1240 84 M 1540 -229 1490 -198 1240 53 M 1490 -198 1540 -221 1600 -294 M 1600 -305 1650 -340 1720 -437 M 1600 -340 1600 -305 1540 -229 M 1720 -437 1720 -453 1840 -542 M 1720 -470 1720 -437 1650 -365 M 1840 -542 1910 -673 1780 -542 1780 -487 M 835 -1840 898 -1840 835 -1840 453 -1910 M -487 -1980 -723 -1910 -487 -1910 -379 -1910 M 1650 -365 1600 -340 M 1600 -294 1600 -305 M 1780 -487 1720 -470 M -74 -1980 -255 -1980 -487 -1980 M -172 -1980 138 -1980 M -379 -1910 -172 -1980 M 213 -1980 -74 -1980 M 453 -1910 407 -1910 M 316 -1910 365 -1910 M 898 -1840 965 -1840 M 138 -1980 213 -1910 M 1430 -133 1490 -198 "/>
<path class="rw" d="M -866 1840 l -91 -2 -50 -4 L -1000 1840 M 673 1600 698 1540 M 470 1780 470 1720 M -604 1980 -626 1980 M 1380 931 1430 898 M 723 1540 l 36 -32 L 1380 931 M -965 1840 -898 1840 -866 1840 -835 1910 -806 1910 M 470 1780 437 1780 M 673 1540 673 1600 M 965 1290 673 1540 M -1000 1840 l 42 1 L -898 1840 M -1000 1840 -898 1840 M 470 1720 673 1600 649 1600 M 437 1780 365 1840 l -154 160 L 154 2050 M 422 1780 l -221 213 L 154 2050 M 470 1720 422 1780 M -523 1980 -542 1980 M -806 1910 -835 1910 M -604 1980 -698 1910 M -649 1980 -806 1910 M -698 1910 -806 1910 M -898 1840 -866 1840 M 1600 750 1380 898 1380 931 M 1980 523 1600 750 M 1430 898 1980 523 M -835 1910 -866 1840 M 138 2050 l -129 39 -40 10 m -340 -36 L -487 2050 M 154 2050 143 2050 M 154 2050 138 2050 M 143 2050 l -133 49 m -422 -42 L -487 2050 M -542 1980 -604 1980 M -487 2050 -523 1980 M -487 2050 -523 1980 M 649 1600 470 1720 M 698 1540 723 1540 M 1380 931 965 1290 M -523 1980 -604 1980 M -626 1980 -649 1980 "/>
</g>
</g>
<g id="names">
<text class="sn" dy="5"><textPath startOffset="30" xlink:href="#s0">Krantzstraße</textPath></text>
<text class="sn" dy="5"><textPath startOffset="30" xlink:href="#s1">Passstraße</textPath></text>
<text class="sn" dy="5"><textPath startOffset="30" xlink:href="#s4">Grüner Weg</textPath></text>
<text class="sn" dy="5"><textPath startOffset="530" xlink:href="#s4">Grüner Weg</textPath></text>
<text class="sn" dy="5"><textPath startOffset="30" xlink:href="#s5">Jülicher Straße</textPath></text>
<text class="sn" dy="5"><textPath startOffset="530" xlink:href="#s5">Jülicher Straße</textPath></text>
<text class="sn" dy="5"><textPath startOffset="1030" xlink:href="#s5">Jülicher Straße</textPath></text>
<text class="sn" dy="5"><textPath startOffset="30" xlink:href="#s7">Europaplatz</textPath></text>
<text class="sn" dy="5"><textPath startOffset="30" xlink:href="#s8">Prager Ring</textPath></text>
<text class="sn" dy="5"><textPath startOffset="530" xlink:href="#s8">Prager Ring</textPath></text>
<text class="sn" dy="5"><textPath startOffset="30" xlink:href="#s9">Krefelder Straße</textPath></text>
<text class="sn" dy="5"><textPath startOffset="530" xlink:href="#s9">Krefelder Straße</textPath></text>
<text class="sn" dy="5"><textPath startOffset="1030" xlink:href="#s9">Krefelder Straße</textPath></text>
<text class="sn" dy="5"><textPath startOffset="30" xlink:href="#s10">A 544</textPath></text>
<text class="sn" dy="5"><textPath startOffset="530" xlink:href="#s10">A 544</textPath></text>
<text class="sn" dy="5"><textPath startOffset="1030" xlink:href="#s10">A 544</textPath></text>
<text class="sn" dy="5"><textPath startOffset="1530" xlink:href="#s10">A 544</textPath></text>
<text class="sn" dy="5"><textPath startOffset="2030" xlink:href="#s10">A 544</textPath></text>
</g>

<circle cx="0" cy="0" r="10" fill="#005"/>
</g></g></g></g></g></g></g>
</g>
<g id="zoom-in" onclick="zoom_in();">
<rect x="5" y="5" width="30" height="30" stroke="#222" stroke-width="2" fill="#ffe"/>
<path d="M 9 20 h 22 m -11 -11 v 22" stroke="#000" stroke-width="2" fill="none"/>
</g>
<g id="zoom-out" onclick="zoom_out();">
<rect x="5" y="40" width="30" height="30" stroke="#222" stroke-width="2" fill="#ffe"/>
<path d="M 9 55 h 22" stroke="#000" stroke-width="2" fill="none"/>
</g>
<text x="0" y="598" font-family="sans" font-size="8" fill="black">© OpenStreetMap contributors</text>
</svg>