<?xml version="1.0" encoding="UTF-8"?>
<svg width="100%" height="100%" viewBox="0 0 600 600" xmlns="http://www.w3.org/2000/svg" xmlns:xlink="http://www.w3.org/1999/xlink" onload="init();">
<style type="text/css">
#snet, .snet {fill: none; stroke-linecap: round; stroke-linejoin: bevel}

.mo {stroke: #e15983; stroke-width: 16}
.fill .mo {stroke: #e892a2; stroke-width: 14}
.z0 .z0 .outline .mo {stroke-width: 32}
.z0 .z0 .fill .mo {stroke-width: 24}

.pr {stroke: #b78b34; stroke-width: 15}
.fill .pr {stroke: #fcd6a4; stroke-width: 13}
.z0 .z0 .outline .pr {stroke-width: 30}
.z0 .z0 .fill .pr {stroke-width: 22}

.se {stroke: #96a03b; stroke-width: 14}
.fill .se {stroke: #f7fabf; stroke-width: 12.5}
.z0 .z0 .outline .se {stroke-width: 28}
.z0 .z0 .fill .se {stroke-width: 20}
.z0 .z0 .z0 .z0 .z0 .outline .se {display: none}
.z0 .z0 .z0 .z0 .z0 .fill .se {display: none}

.te {stroke: #cccbcb; stroke-width: 13}
.fill .te {stroke: #fff; stroke-width: 11}
.z0 .z0 .z0 .outline .te {display: none}
.z0 .z0 .z0 .fill .te {display: none}

.st {stroke: #cccbcb; stroke-width: 10}
.fill .st {stroke: #fff; stroke-width: 8}
.z0 .z0 .z0 .outline .st {display: none}
.z0 .z0 .z0 .fill .st {display: none}

.rw {stroke: #555; stroke-width: 10}
.fill .rw {stroke: #eee; stroke-width: 4; stroke-dasharray: 30 30}
.z0 .z0 .outline .rw {stroke-width: 20}
.z0 .z0 .fill .rw {stroke-width: 8}

.sn {font-family: sans; font-size: 24px}
.z0 .z0 .sn {display: none}

/*.z0, .z1 {transition: all 0.2s linear}*/
.z0 {transform: scale(0.5)}
.z1 {transform: scale(1)}

#zoom-in, #zoom-out {cursor: pointer}
</style>
<script><![CDATA[

var f = 3; // zoom factor
var ox = 0; // persistent offsets
var oy = 0;
var dx = 0; // current drag offsets
var dy = 0;
var sx = 0; // drag start positions
var sy = 0;

var p = 0;
var shifter = 0;
var streets = 0;
function init()
{
	p = document.getElementById('zp');
	shifter = document.getElementById('shifter').transform.baseVal.getItem(0);
	streets = document.getElementById("streets");
	streets.addEventListener('mousedown', grab);
	streets.addEventListener('mouseup', drop);
};
function zoom_in()
{
	if(p.getAttribute('class') == 'z0')
	{
		p.setAttribute('class', 'z1');
		p = p.firstChild;
		f = f * 0.5;
	}
};
function zoom_out()
{
	if(p.parentElement.getAttribute('class') == 'z1')
	{
		p = p.parentElement;
		p.setAttribute('class', 'z0');
		f = f * 2.0;
	};
};

function grab(ev)
{
	streets.addEventListener('mousemove', drag);
	sx = ev.clientX;
	sy = ev.clientY;
};
function drag(ev)
{
	dx = ((ev.clientX - sx) * f + ox);
	dy = ((ev.clientY - sy) * f + oy);
	shifter.setTranslate(dx, dy);
};
function drop(ev)
{
	drag(ev);
	streets.removeEventListener('mousemove', drag);
	ox = dx;
	oy = dy;
};
]]></script>
<defs>
</defs>

<g id="streets" transform="translate(300 300)">
<path d="M -2000 -2000 h 4000 v 4000 H -2000 z" fill="#f2efe9"/>
<g class="z1"><g class="z1"><g class="z1"><g class="z1"><g class="z0"><g id="zp" class="z0"><g id="shifter" transform="translate(0 0)">
<circle cx="0" cy="0" r="1260" fill="none" stroke="#cccbcb" stroke-width="2" stroke-dasharray="40 30"/>
<!--<circle cx="0" cy="0" r="2100" fill="none" stroke="#96a03b" stroke-width="4" stroke-dasharray="80 60" />-->
<circle cx="0" cy="0" r="2100" fill="none" stroke="#e15983" stroke-width="8" stroke-dasharray="160 120"/>


<g class="outline"><use xlink:href="#snet"/></g><g class="fill">
<g id="snet">
<path class="se" d="M 438 -182 430 -187 M 558 -333 551 -339 M 354 -90 362 -85 "/>
<path class="pr" d="M 0 539 -12 553 M -408 580 l -3 4 -7 1 -6 5 -4 8 L -429 604 M -218 594 -211 614 M -1840 328 -1820 363 M -848 820 -837 753 M -1960 377 l -10 -1 -12 1 -6 -1 -6 -3 L -2030 347 M -825 1760 l -14 -9 -11 -2 L -856 1740 M -819 739 l -14 -6 L -882 705 M 87 604 l 8 0 8 2 L 119 617 l -8 -17 0 -6 L 112 586 M -1030 552 -1050 598 M 2 475 l 8 22 L 10 510 M -26 571 l 19 0 L 10 580 M 1400 276 l 1 -9 -3 -8 L 1400 252 M 1400 218 l -12 -1 -6 3 L 1380 222 M 1350 224 l -5 14 L 1350 244 M 1350 275 l 12 0 L 1370 272 M 141 -1750 130 -1750 M 1350 244 l -4 8 -3 12 L 1340 270 M 1380 222 l -13 -1 L 1360 217 M 1400 252 1400 231 M 1370 272 l 7 0 L 1380 275 M -49 1160 l 7 -2 L -19 1150 M 36 491 l -15 -2 L 2 475 M 1370 257 1380 248 M 1370 239 1360 248 M 125 -1740 137 -1740 M -414 579 l -4 -3 -2 -4 -1 -5 L -423 559 M -12 553 -29 561 M 126 -1720 l 7 -1 7 -5 L 156 -1730 M -2030 347 -2030 340 "/>
<path class="mo" d="M 279 -2040 243 -2050 216 -2060 M 1260 117 1280 118 M 1300 147 l -7 -19 L 1300 104 M 1230 -18 1190 10 M 446 530 156 526 l -14 -1 -14 -3 -7 -3 L 110 507 M 296 -2070 l -8 0 -7 8 -6 5 -8 3 -11 2 L 243 -2050 M 212 -2060 240 -2040 M 216 -2060 l -44 -21 -21 -2 -16 3 -32 18 -59 69 -35 16 L -74 -1960 M 240 -2040 l 8 4 8 10 4 8 L 262 -2000 M 51 -1790 l -29 -19 -27 -31 -6 -19 0 -17 3 -19 11 -18 17 -14 21 -10 21 -5 60 -1 L 139 -1950 M 91 -1760 l 1 6 7 7 4 8 2 7 0 7 -2 8 L 105 -1710 M -16 -1830 11 -1800 M 146 -1780 l -7 0 -4 4 -9 6 -6 3 -12 0 L 105 -1760 M -169 -1950 l 11 5 45 7 23 10 16 11 20 17 L -16 -1830 M 123 563 l 6 -9 8 -5 8 -3 L 158 545 M 1490 -202 l -30 18 L 1370 -113 M 1300 104 1360 -22 M 1230 -18 l -32 8 -11 -2 L 1170 -16 M 91 -1760 125 -1740 M 240 -2040 275 -2030 M 130 -1750 105 -1760 51 -1790 M 1280 118 l 9 -4 L 1300 104 M 213 -1960 l -11 -1 -49 -9 -16 -6 -14 -9 -11 -11 -7 -15 0 -26 4 -11 17 -17 19 -7 21 0 24 5 L 212 -2060 M 1370 -113 1230 -18 M 1360 -22 1440 -133 M 11 -1800 91 -1760 M 1190 10 1190 15 "/>
<path class="st" d="M -527 460 -614 526 M -586 685 -590 677 M -483 426 -527 460 M -583 377 l -27 -22 L -619 355 M -617 419 l 9 -2 24 -32 L -583 377 M -437 300 l -60 63 L -549 329 M -290 847 -215 783 -174 751 M -586 685 -556 744 M -415 621 l 3 10 L -389 663 -344 721 M -389 663 -535 779 M -1040 -13 -1030 -8 -956 37 -923 59 M -982 103 l 0 -5 -2 -4 -3 -4 L -991 87 l -5 -2 -6 0 -6 1 -5 3 -3 5 -2 5 L -1020 104 l 3 5 3 5 5 3 5 2 6 1 5 -2 L -988 115 l 3 -3 2 -4 L -982 103 M -991 87 -956 37 M -805 -201 -818 -172 -794 -187 M -1100 176 l 41 29 26 10 27 4 L -980 217 M -1170 236 l 14 -2 L -1100 176 l 41 -53 11 -10 21 -8 L -1020 104 M -980 217 l 1 -5 -5 -78 L -988 115 M -993 -376 l -27 41 L -1060 -297 M -1190 -365 l 31 2 28 9 25 14 21 16 L -1060 -297 -992 -196 l 20 21 L -946 -157 M 613 -809 617 -814 661 -869 M 82 -663 246 -564 335 -507 420 -441 M -29 -524 l -67 -65 -19 -29 -12 -30 -6 -65 6 -36 14 -35 22 -35 L 19 -942 82 -1010 M 19 -942 -135 -1060 M -67 -1150 82 -1010 227 -895 M -526 82 -549 64 M 362 -85 l 184 101 L 559 28 M -502 802 l -8 17 L -612 850 M -687 909 -602 884 M -535 1110 -602 884 M -691 892 -817 926 M -287 454 l 73 106 9 8 9 5 9 2 9 1 12 -2 10 -5 L -71 503 M 523 868 l -8 -6 L 433 764 l -71 -86 -18 -8 -18 -1 -6 1 L 205 734 M 178 908 278 852 M 362 -240 486 -387 M 551 -339 486 -387 466 -404 M 457 907 559 1040 M -715 -74 -624 -164 l 58 -73 L -556 -255 l 11 -30 4 -21 -1 -18 -10 -34 -14 -24 -18 -21 -13 -8 L -632 -425 M -774 -158 l 44 -30 L -703 -222 M -624 -164 l -31 -28 L -703 -222 M -588 -280 -556 -255 M -764 -409 l 32 18 L -659 -333 -588 -280 M -1240 96 l 24 -10 12 -2 17 2 12 6 7 10 15 41 L -1150 151 M 376 1130 l 67 -1 7 2 L 478 1160 M -952 785 l -16 -25 L -973 755 M -1050 598 -1050 608 M -525 -933 l 31 -94 21 -42 L -358 -1200 M -436 -894 -445 -899 M -525 -933 l -7 0 -5 3 -2 6 2 6 L -532 -915 M 24 -1260 1 -1230 M -174 751 l 0 -5 L -259 650 M -215 783 -256 739 M -344 721 l -115 90 L -460 818 M -344 721 -284 668 M -612 850 -696 874 M -535 1110 l 11 -6 73 -97 2 -5 L -449 994 -454 926 -460 818 M -454 926 -536 946 M -526 1140 -535 1110 M -372 849 l -2 30 L -377 884 M -290 1010 -379 1010 M -295 1110 -290 1010 -287 918 M 135 638 l -132 87 L 1 728 M -1190 214 l -39 -31 L -1240 96 l -11 -26 L -1260 61 M -1030 -399 -1000 -476 -975 -543 -933 -617 -914 -652 M 251 1200 220 1030 M 853 -713 l -182 -171 L 661 -869 M 429 -821 422 -827 M 558 -547 430 -634 M 466 -404 l 43 -53 24 -53 L 558 -547 653 -663 706 -728 M 653 -663 429 -821 M 484 -912 422 -827 M 34 1180 32 1170 M 383 1190 358 1190 M 616 996 559 1040 480 1100 M 616 996 671 1060 M 141 268 4 378 "/>
<path class="st" id="s0" d="M -61 -2 l 161 119 4 4 L 108 128 111 136 "/>
<path class="st" d="M 141 268 111 136 M -71 503 -13 456 M 523 868 542 874 559 879 M -614 526 l -86 67 -10 13 -13 26 L -736 688 M 360 -1010 l 7 -7 L 376 -1030 M 166 -1240 125 -1190 119 -1180 M 505 -904 591 -1010 l 10 -17 L 607 -1020 631 -1050 M 607 -1020 l -10 9 L 591 -1010 M 503 1130 480 1100 l -89 -87 L 360 1020 M -1070 -130 -1050 -166 -992 -196 M -1090 -228 l 12 38 6 6 10 4 L -1050 -166 M -968 754 l 66 -7 1 8 -39 18 -12 7 L -968 754 M -950 28 -956 37 M -950 28 -818 -172 M -454 575 l -5 -12 L -527 460 -583 377 M 542 874 l -6 11 L 616 996 M 120 1190 l 32 -45 -15 -8 -27 6 -9 -43 -106 50 83 16 L 120 1190 M -344 721 -290 847 -287 876 M 561 1130 603 1090 M -741 719 -738 729 M -67 -1150 -135 -1060 l -75 111 -11 38 -1 13 -17 9 -12 -4 -15 -27 L -368 -994 M -528 -618 l 25 -30 L -477 -667 M 278 852 l 33 -20 7 1 L 433 764 l 91 -73 L 586 675 M -13 456 -9 452 M 1170 -460 1150 -493 M 246 -564 325 -695 M 321 -487 278 -439 208 -353 M 142 628 l 16 -14 3 -25 13 -2 -8 13 -1 5 2 18 -5 -1 -4 -4 L 142 628 M -696 874 -691 892 -687 909 M 1130 -521 1120 -512 l 3 10 L 1150 -493 M -968 754 -973 755 M -738 729 -696 874 M -39 1180 -38 1170 M -583 377 -549 329 -483 257 "/>
<path class="st" id="s1" d="M -590 677 l -21 -67 L -614 526 -617 419 -619 355 l -3 -123 3 -19 7 -17 L -605 185 "/>
<path class="st" d="M -378 975 -379 996 -379 1010 -384 1140 M -377 884 -378 975 M 325 -695 l 71 48 L 411 -643 M -605 185 -591 166 M -602 884 -612 850 M -687 909 -666 972 M -612 850 -654 707 M 104 784 -165 894 l -41 6 L -221 898 M -973 755 -1010 755 M -602 -8 -588 37 M -549 64 -588 37 l -41 55 L -632 90 M 321 -487 322 -489 335 -507 M 466 -404 455 -412 M -445 -899 -518 -923 M 1150 -493 1130 -521 M -449 994 -442 994 -384 996 -379 996 M -384 996 l -1 26 -48 -1 -12 -9 2 -5 L -442 994 -384 996 M 358 1190 251 1200 M 220 1030 178 908 M -9 452 24 427 M -703 -222 l -24 -16 L -659 -333 M 348 -386 278 -439 M 348 -386 279 -301 M 1 -1230 -67 -1150 M 205 734 104 784 M -736 688 l -6 20 0 4 L -741 719 M -287 918 -287 876 M -297 1150 -295 1110 M -221 898 -287 876 M -454 575 -449 583 M 616 897 789 942 M 559 879 616 897 M 559 879 l -4 -10 L 554 849 M 227 -895 249 -875 M -299 1210 -297 1150 M 376 -1030 l 8 -7 25 -36 L 417 -1080 M -535 779 l 6 7 7 7 L -502 802 M -556 744 l 16 28 L -535 779 M -502 802 -477 812 -460 818 -372 849 -344 858 -287 876 M -532 -915 l 7 0 5 -4 L -518 -923 l -2 -6 L -525 -933 "/>
<path class="st" id="s2" d="M 208 -353 279 -301 362 -240 430 -187 "/>
<path class="te" id="s3" d="M -591 166 l 15 4 L -483 257 -437 300 -293 446 "/>
<path class="te" d="M -864 -281 -857 -271 M -864 -281 -891 -305 M -1130 123 l -9 -13 L -1150 76 "/>
<path class="te" id="s4" d="M -591 166 -526 82 -225 -286 -29 -524 82 -663 249 -875 "/>
<path class="te" d="M -225 -286 l -60 -47 -21 -22 -89 -163 -45 -43 L -528 -618 -558 -635 M 1090 507 1100 532 M -1130 142 -1130 123 M 2 475 -13 456 M -123 324 -129 317 M -293 446 -287 454 M 353 -1010 360 -1010 M 290 -924 l -9 5 -29 36 L 249 -875 M -857 -271 -824 -226 M 1100 532 1110 539 M -13 456 -119 329 M -609 161 l 4 13 L -605 185 M -701 64 l 4 26 L -691 106 l 7 9 L -631 148 M -119 329 -123 324 M 360 1020 l -2 -10 L 344 974 M 302 -940 316 -959 M -891 -305 -993 -376 -1030 -399 -1120 -439 M -824 -226 -805 -201 -794 -187 -774 -158 -715 -74 l 6 14 4 18 L -701 64 M 316 -959 l 31 -43 L 353 -1010 M 361 1030 360 1020 M 376 1130 361 1030 M 383 1190 376 1130 M -609 161 -591 166 M -631 148 -609 161 M 249 -875 l 8 -5 29 -36 L 290 -924 302 -940 M -1150 76 l -7 -8 -8 -46 9 -67 0 -22 -34 -97 L -1200 -289 M -558 -635 -597 -657 -606 -662 "/>
<path class="se" d="M -1300 792 -1270 825 -1250 851 M 344 974 278 852 M 34 1120 l -10 5 L -8 1140 M -1440 1350 l -5 -2 -17 22 -13 13 L -1480 1390 M -1730 657 -1710 656 M 996 -876 1050 -894 1150 -914 1180 -922 M -812 -1430 l 8 11 10 4 L -785 -1410 M -1300 1390 -1290 1400 M -1300 1390 -1310 1370 M 853 -713 964 -852 M 853 -713 804 -658 M -890 757 l -44 16 L -952 785 M 523 868 537 860 M 1180 440 1340 277 M -812 -1430 l -3 -5 -1 -7 2 -7 L -809 -1460 M -1550 724 -1470 740 M -1240 858 -1240 866 M 1340 -1050 l 28 -2 L 1380 -1060 M 1280 -1270 1300 -1290 M 1340 -1050 l -10 -5 -29 -23 -11 -14 L 1250 -1170 M -1180 949 -1160 924 M 34 1120 220 1030 M -4 1140 34 1120 M -825 1840 -825 1800 M -112 -1390 -158 -1400 M 1360 248 1340 270 1340 277 M -442 576 -434 568 M 1340 277 1350 275 1370 257 M 805 -641 812 -649 M -19 1150 -4 1140 M -1780 691 l 10 -2 38 -23 L -1730 657 M -1900 768 l 18 -6 51 -34 L -1820 717 M -1070 844 -997 807 M -1160 924 -1160 921 M -1430 1340 -1400 1360 M -747 -1410 -601 -1410 M -1430 1340 -1410 1300 M -293 446 -309 465 "/>
<path class="se" id="s5" d="M -287 454 -123 324 111 136 l 223 -188 L 362 -85 438 -182 558 -333 805 -641 "/>
<path class="se" d="M 804 -658 798 -650 M 812 -649 l 29 -39 L 853 -713 M -242 -1400 l 95 9 13 5 L -119 -1380 M 537 860 554 849 679 761 M -343 -1410 -262 -1400 M -1900 768 -1940 801 M 1320 -1020 l 16 -10 1 -6 0 -6 L 1340 -1050 M -811 -1690 -824 -1700 -1000 -1840 M -100 -1380 -112 -1390 M 964 -852 980 -867 M 1370 -1360 1500 -1470 M -952 785 -997 807 M -1560 721 -1550 724 M -1730 657 l -6 3 L -1740 663 -1770 682 -1770 684 -1780 691 M -1240 866 -1230 875 -1230 880 M -119 -1380 -108 -1370 M -1710 656 -1560 721 M -1120 1500 -1090 1510 M -1140 1490 -1120 1500 M -262 -1400 -242 -1400 M -393 -1410 -359 -1410 -343 -1410 M 991 560 1090 507 M 935 591 966 574 M -826 1850 -825 1840 M -833 1910 -828 1870 -826 1850 M -1330 1390 l 11 -7 4 -6 L -1310 1370 M -8 1140 -58 1160 M 275 1010 344 974 M 1300 -1290 1340 -1320 M 205 734 181 699 135 638 M 798 -650 551 -339 430 -187 354 -90 108 128 -129 317 -293 446 M 344 974 457 907 M -1550 1410 -1530 1410 M -1360 1330 -1380 1320 M -1410 752 l 57 6 15 5 12 5 L -1300 792 M 1250 -1170 l -10 -25 -1 -7 0 -6 2 -6 2 -5 L 1280 -1270 M 1210 -935 1260 -964 M -922 1610 -882 1630 M -158 -1400 -178 -1410 M -1240 1430 -1210 1450 -1140 1490 M -1290 1400 -1240 1430 M -1090 855 -1070 844 M -1110 880 -1090 855 M -178 -1410 -242 -1400 M 135 638 119 617 M 679 761 713 735 M -997 807 -977 802 -948 791 -886 768 M -326 478 l -13 3 -68 54 L -408 547 M -434 568 -454 575 M -309 465 -287 454 M -326 478 -309 465 M -408 547 l 14 -7 64 -51 L -326 478 M -434 568 -423 559 -408 547 M 278 852 205 734 M 220 1030 275 1010 M -449 583 -442 576 M -1530 1410 l 13 -1 L -1500 1400 M -1090 1510 -1020 1560 -972 1580 -922 1610 M -882 1630 -810 1680 M 966 574 991 560 M 917 601 935 591 M 1130 478 1180 440 M 1090 507 1130 478 M 457 907 523 868 M 713 735 917 601 M 980 -867 996 -876 M -785 -1410 -747 -1410 M -790 -1500 l 11 -30 5 -27 1 -27 -7 -41 -5 -19 L -811 -1690 M -809 -1460 -790 -1500 M -601 -1410 -553 -1410 -393 -1410 M -1470 740 -1410 752 M -1530 1410 -1540 1420 M -1440 1350 -1430 1340 M -1530 1430 l 1 -6 L -1530 1410 M -1500 1400 l 18 -4 11 -7 10 -9 22 -28 L -1440 1350 M -1480 1390 -1530 1410 M -1250 851 -1240 858 M -1220 894 l 28 46 L -1180 949 M -1160 921 -1110 880 M -1230 880 -1220 894 M -1200 917 l -4 -9 L -1220 894 M -1180 949 l -7 -13 L -1200 917 M -1330 1390 -1300 1390 M -1380 1320 -1410 1300 M -1400 1360 l 53 26 11 4 L -1330 1390 M -1310 1370 l -8 -12 L -1360 1330 M 1380 -1060 l 51 -27 11 -2 9 -1 62 15 64 2 L 1830 -1010 M 1180 -922 1210 -935 M 1260 -964 1280 -977 1290 -986 l 26 -20 L 1320 -1020 M 1340 -1320 1370 -1360 M -1820 717 -1780 691 M -1820 717 l -66 38 L -1900 768 "/>
<path class="pr" d="M -218 594 -389 581 M -865 762 -869 752 M -1270 354 l -11 -7 L -1340 340 "/>
<path class="pr" id="s6" d="M 801 -646 805 -641 l 36 43 L 922 -460 "/>
<path class="pr" d="M -442 576 -454 575 M 279 -2040 275 -2030 M -906 1750 l 14 10 50 8 L -825 1760 M -849 1860 l -131 -62 -7 -5 L -991 1790 M -211 614 l 22 -11 L -26 571 M 702 1590 l -2 -6 L 691 1580 M 808 -654 804 -658 M 275 -2030 262 -2000 M 1810 605 l -26 -34 -27 -24 -240 -143 L 1430 316 M 1860 669 1810 605 M 1850 672 l 42 49 36 25 L 1950 755 M 1810 609 1850 672 M -1990 406 -2000 398 M -751 1140 -757 1210 M -825 1800 l -8 10 L -839 1840 M -825 1800 -825 1760 M 922 -460 943 -422 983 -333 M 953 -426 929 -468 881 -553 M 1950 748 l -19 -9 -34 -22 -13 -12 L 1860 669 M 411 1400 l 16 14 L 492 1460 M -29 561 -218 594 M 702 1590 765 1630 M 411 1400 361 1360 M -131 1160 -167 1160 M -820 1700 l -15 26 L -843 1740 M -856 1740 l -6 8 -10 3 -26 -1 L -906 1750 M -825 1760 l 8 -9 10 -54 L -810 1680 l -9 9 L -820 1700 -829 1750 M -849 1860 M 1370 257 l 5 8 L 1380 275 M 289 -2030 279 -2040 M 275 -2030 289 -2030 M -2010 408 -1990 406 M 777 1640 810 1670 M -1270 354 l 18 -5 L -1250 346 M -1270 354 -1290 384 -1140 518 -1080 572 -1050 598 l 144 127 L -890 757 M -886 768 -876 765 M -865 762 -837 753 M -890 757 -886 768 M 1370 239 1360 217 1300 147 M 1380 275 l 169 163 204 115 26 23 L 1810 609 M -19 1150 l -19 3 L -58 1160 M -757 1210 -765 1290 M -2000 398 -2010 408 M 495 1450 l -65 -46 L 411 1400 M -879 754 -890 757 M 110 507 l -12 -10 -17 -9 -15 -2 -17 1 L 36 491 "/>
<path class="pr" id="s7" d="M 10 510 l -8 17 L 0 539 l 5 28 L 10 580 l 8 13 20 11 11 4 12 1 12 -1 L 87 604 l 15 -8 L 112 586 l 7 -10 L 123 563 l -3 -29 L 110 507 "/>
<path class="pr" d="M -889 690 -894 678 M -848 820 -865 762 M -680 -552 -738 -467 M -1130 123 -1150 151 M -864 -281 -946 -157 M -771 1340 -778 1410 M -991 1790 -990 1750 M -1990 406 l 23 -15 12 -5 L -1900 382 M -894 678 -905 666 -1030 552 -1100 495 M 536 1480 583 1510 M 536 1480 l -8 -11 L 495 1450 M -741 719 -794 732 M -869 752 -879 754 M -119 -1380 -146 -1340 M 983 -333 1010 -270 M 36 491 l -15 9 L 10 510 M 691 1580 671 1560 l -8 -2 L 654 1560 M 662 1570 679 1580 l 14 10 L 702 1590 M -779 1050 -764 1060 M -817 926 -848 820 M -58 1160 -93 1160 M -869 752 -882 705 -889 690 M 74 -1640 82 -1650 126 -1720 M 72 -1660 65 -1650 -2 -1550 -42 -1490 M 804 -658 617 -814 505 -904 425 -966 M 812 -649 808 -654 M 360 -1010 125 -1190 94 -1220 "/>
<path class="pr" id="s8" d="M -108 -1370 l 29 14 L 28 -1260 119 -1180 353 -1010 484 -912 613 -809 706 -728 798 -650 801 -646 "/>
<path class="pr" d="M -1900 382 l 51 -17 20 -2 L -1820 363 M 765 1630 777 1640 M 881 1710 968 1770 M 34 -1270 -29 -1330 M -789 1510 -790 1520 M -49 1160 -38 1170 16 1170 M 881 -553 812 -649 M -100 -1380 -90 -1400 -59 -1440 M -1710 307 -1790 318 M -1840 328 l -63 20 L -1920 357 M 215 -1880 237 -1920 M 262 -2000 193 -1860 146 -1780 M 1230 67 1250 101 M 1260 117 1270 130 M 1260 96 1230 63 1190 10 M 1170 -16 1160 -35 M -1150 1750 -1110 1750 M -876 765 -865 762 M 1190 15 1200 38 M 1300 147 1280 118 M 141 -1750 215 -1880 M 105 -1710 80 -1670 M 289 -2030 294 -2040 M -1960 377 -2000 398 M -2030 340 -2080 296 M -886 768 -830 948 M 16 1170 32 1170 M -395 -971 -445 -899 M -606 -662 -641 -612 M -445 -899 -606 -662 M -108 -1370 -100 -1380 M -112 -1390 -119 -1380 M 125 -1740 105 -1710 M 130 -1750 125 -1740 M 259 1300 237 1280 M 614 1530 624 1540 654 1560 M -839 1840 -849 1860 M -990 1750 -934 1750 M 55 1170 -19 1150 M 126 1200 l -51 -25 L 55 1170 M -2000 398 -2030 340 M -1110 1750 -990 1750 M 990 -345 953 -426 M -408 580 -414 579 M -389 581 -408 580 M -414 579 l -21 -1 L -442 576 M -2060 325 l 8 9 L -2040 351 M -830 948 -824 963 M -764 1060 l 0 -14 L -790 999 M 1280 118 1260 96 M -449 583 -429 604 -415 621 l 41 34 32 14 21 4 23 -1 L -284 668 M -790 1520 -801 1620 -810 1680 M -1790 318 -1840 328 M -1920 357 -1960 377 M -2040 351 -2010 408 M -1820 363 l 38 0 75 11 L -1580 369 -1520 368 -1410 370 M -1190 214 -1210 262 M -1210 398 -1270 354 M -1100 495 -1210 398 M -1410 370 -1320 376 M 1200 38 1230 67 M 1270 130 1300 170 M 1430 316 1400 276 M 1300 170 1350 224 1360 248 1370 257 M 1400 276 l -14 -17 L 1380 248 1370 239 M 1160 -35 l -154 -261 L 990 -345 M 94 -1220 34 -1270 M 425 -966 360 -1010 M -29 -1330 l -60 -46 L -100 -1380 M -799 -378 -817 -349 M -244 -1190 -395 -971 M -817 -349 -864 -281 M -641 -612 -680 -552 M -222 -1230 -244 -1190 M -185 -1280 -222 -1230 M -1210 262 l -54 80 L -1270 354 M -146 -1340 -169 -1300 M -526 1140 -571 1140 M -384 1140 -421 1140 M -616 1140 -629 1140 M -167 1160 -209 1150 -297 1150 M -571 1140 -616 1140 M -297 1150 l -15 -3 L -384 1140 M -582 1150 l 58 2 L -514 1150 M -765 1290 -771 1340 M -76 -1440 l -24 39 L -112 -1390 M -778 1410 -789 1510 M 296 -2070 279 -2040 M 237 -1920 289 -2030 M 810 1670 827 1680 881 1710 M -2050 433 -2010 408 M -861 1890 -849 1860 M 968 1770 1010 1800 M 654 1560 l 2 5 L 662 1570 M -1320 376 l 19 2 L -1290 384 M -1340 340 -1350 339 l -233 -3 L -1660 320 -1710 307 M -764 1060 -758 1090 -751 1140 M -93 1160 -131 1160 M -751 1140 -678 1140 M 583 1510 614 1530 M 492 1460 l 30 18 L 536 1480 M 333 1340 281 1310 M 32 1170 55 1170 M -58 1160 -49 1160 M -495 1150 l 11 3 L -462 1150 M -383 1150 l 71 7 L -297 1150 M -514 1150 -495 1150 M -629 1140 l 13 9 L -613 1150 M -678 1140 -629 1140 M -421 1140 l -62 2 L -495 1150 M -462 1150 -383 1150 M -613 1150 -603 1150 -582 1150 M -824 963 -810 996 M -790 999 -817 926 M -514 1150 -526 1140 M 237 1280 126 1200 M 281 1310 259 1300 M -810 996 -779 1050 M -715 717 -704 714 M -715 717 l -8 -2 L -741 719 M -797 743 -738 729 l 18 -5 L -715 717 M -454 575 l -41 31 -85 66 L -590 677 l -107 32 L -704 714 l 10 2 L -654 707 -586 685 l 129 -94 L -449 583 M -284 668 -259 650 -211 614 M 1250 101 1260 117 M -32 -1480 8 -1540 18 -1550 43 -1590 74 -1640 M -42 -1490 -55 -1470 -76 -1440 M 361 1360 333 1340 M 1190 10 1170 -16 M -934 1750 -906 1750 M -819 739 -869 752 M -794 732 -819 739 M -944 1870 -889 1890 -880 1890 M -1150 151 -1190 214 "/>
<path class="pr" id="s9" d="M -1170 236 -1130 142 -1030 -8 -857 -271 -764 -409 -597 -657 -436 -894 -368 -994 -108 -1370 "/>
<path class="pr" d="M -843 1740 -856 1740 M -829 1750 -825 1760 M -880 1890 l 14 -1 L -861 1890 M -837 753 -797 743 M -169 -1300 -185 -1280 M -59 -1440 -32 -1480 M -1040 -13 -1130 123 M -997 -81 -1040 -13 M -946 -157 -997 -81 M -738 -467 -799 -378 M 80 -1670 72 -1660 M 126 -1720 137 -1740 141 -1750 M 146 -1780 130 -1750 M -1250 346 -1170 236 M 1010 -270 1190 15 "/>
<path class="mo" id="s10" d="M 158 545 l 394 -15 176 -44 195 -101 L 1230 94 "/>
<path class="mo" d="M 1220 84 l -253 256 -192 116 -224 65 L 446 530 M 211 -1940 268 -1940 320 -1930 M 274 -1950 217 -1960 213 -1960 M 366 -1930 407 -1930 843 -1860 M 409 -1940 366 -1940 274 -1950 M 1230 94 1260 66 1440 -133 M 1250 53 1220 84 M 1520 -226 1490 -202 1250 53 M 1510 -198 1520 -218 1590 -293 M 1600 -307 1630 -341 1720 -434 M 1620 -337 1590 -305 1520 -226 M 1720 -434 1740 -457 1820 -538 M 1730 -463 1710 -441 1640 -362 M 1820 -538 1940 -663 M 1930 -670 1810 -545 1750 -485 M 843 -1860 898 -1850 M 897 -1860 844 -1870 452 -1930 M -486 -1950 -728 -1940 M -728 -1920 -486 -1940 -374 -1940 M 1640 -362 1620 -337 M 1590 -293 1600 -307 M 1750 -485 1730 -463 M -74 -1960 -251 -1960 -486 -1950 M -169 -1950 139 -1950 M -374 -1940 -169 -1950 M 213 -1960 -74 -1960 M 452 -1930 409 -1940 M 320 -1930 366 -1930 M 898 -1850 949 -1840 M 139 -1950 211 -1940 M 1440 -133 1510 -198 "/>
<path class="rw" d="M -866 1870 l -91 -32 -50 -4 L -1010 1830 M 665 1580 691 1560 M 467 1750 478 1740 M -602 1980 -633 1960 M 1380 920 1410 897 M 717 1540 l 42 -32 L 1380 920 M -973 1860 -894 1870 M -899 1860 -864 1870 -839 1880 -801 1900 M 467 1750 441 1780 M 684 1550 662 1570 M 967 1300 684 1550 M -1010 1840 l 52 1 L -899 1860 M -986 1850 -894 1870 M 478 1740 665 1580 M 662 1570 657 1580 M 441 1780 368 1850 l -158 148 L 156 2030 M 427 1780 l -222 211 L 154 2020 M 469 1740 427 1780 M -528 2000 -552 1990 M -799 1890 -839 1880 M -600 1970 -696 1930 M -641 1960 -801 1900 M -696 1930 -799 1890 M -894 1870 -864 1870 M 1580 763 1410 894 1380 917 M 2010 525 1580 763 M 1410 897 2020 528 M -839 1880 -866 1870 M 140 2030 l -130 59 -41 10 m -345 -36 L -483 2020 M 156 2030 141 2040 M 154 2020 140 2030 M 141 2040 l -130 59 m -424 -42 L -491 2030 M -552 1990 -600 1970 M -483 2020 -528 2000 M -491 2030 -531 2010 M 657 1580 469 1740 M 691 1560 717 1540 M 1380 917 967 1300 M -531 2010 -602 1980 M -633 1960 -641 1960 "/>
</g>
</g>
<g id="names">
<text class="sn" dy="5"><textPath startOffset="30" xlink:href="#s0">Krantzstraße</textPath></text>
<text class="sn" dy="5"><textPath startOffset="30" xlink:href="#s1">Passstraße</textPath></text>
<text class="sn" dy="5"><textPath startOffset="30" xlink:href="#s4">Grüner Weg</textPath></text>
<text class="sn" dy="5"><textPath startOffset="530" xlink:href="#s4">Grüner Weg</textPath></text>
<text class="sn" dy="5"><textPath startOffset="30" xlink:href="#s5">Jülicher Straße</textPath></text>
<text class="sn" dy="5"><textPath startOffset="530" xlink:href="#s5">Jülicher Straße</textPath></text>
<text class="sn" dy="5"><textPath startOffset="1030" xlink:href="#s5">Jülicher Straße</textPath></text>
<text class="sn" dy="5"><textPath startOffset="30" xlink:href="#s7">Europaplatz</textPath></text>
<text class="sn" dy="5"><textPath startOffset="30" xlink:href="#s8">Prager Ring</textPath></text>
<text class="sn" dy="5"><textPath startOffset="530" xlink:href="#s8">Prager Ring</textPath></text>
<text class="sn" dy="5"><textPath startOffset="30" xlink:href="#s9">Krefelder Straße</textPath></text>
<text class="sn" dy="5"><textPath startOffset="530" xlink:href="#s9">Krefelder Straße</textPath></text>
<text class="sn" dy="5"><textPath startOffset="1030" xlink:href="#s9">Krefelder Straße</textPath></text>
<text class="sn" dy="5"><textPath startOffset="30" xlink:href="#s10">A 544</textPath></text>
<text class="sn" dy="5"><textPath startOffset="530" xlink:href="#s10">A 544</textPath></text>
<text class="sn" dy="5"><textPath startOffset="1030" xlink:href="#s10">A 544</textPath></text>
<text class="sn" dy="5"><textPath startOffset="1530" xlink:href="#s10">A 544</textPath></text>
<text class="sn" dy="5"><textPath startOffset="2030" xlink:href="#s10">A 544</textPath></text>
</g>

<circle cx="0" cy="0" r="10" fill="#005"/>
</g></g></g></g></g></g></g>
</g>
<g id="zoom-in" onclick="zoom_in();">
<rect x="5" y="5" width="30" height="30" stroke="#222" stroke-width="2" fill="#ffe"/>
<path d="M 9 20 h 22 m -11 -11 v 22" stroke="#000" stroke-width="2" fill="none"/>
</g>
<g id="zoom-out" onclick="zoom_out();">
<rect x="5" y="40" width="30" height="30" stroke="#222" stroke-width="2" fill="#ffe"/>
<path d="M 9 55 h 22" stroke="#000" stroke-width="2" fill="none"/>
</g>
<text x="0" y="598" font-family="sans" font-size="8" fill="black">© OpenStreetMap contributors</text>
</svg>